<?xml version="1.0" encoding="UTF-8" standalone="no"?>
<svg
   xmlns:dc="http://purl.org/dc/elements/1.1/"
   xmlns:cc="http://creativecommons.org/ns#"
   xmlns:rdf="http://www.w3.org/1999/02/22-rdf-syntax-ns#"
   xmlns:svg="http://www.w3.org/2000/svg"
   xmlns="http://www.w3.org/2000/svg"
   xmlns:sodipodi="http://sodipodi.sourceforge.net/DTD/sodipodi-0.dtd"
   xmlns:inkscape="http://www.inkscape.org/namespaces/inkscape"
   width="29px"
   height="29px"
   viewBox="0 0 29 29"
   version="1.1"
   id="svg2"
   inkscape:version="0.92.0 r15299"
   sodipodi:docname="logo-white.svg">
  <metadata
     id="metadata14">
    <rdf:RDF>
      <cc:Work
         rdf:about="">
        <dc:format>image/svg+xml</dc:format>
        <dc:type
           rdf:resource="http://purl.org/dc/dcmitype/StillImage" />
      </cc:Work>
    </rdf:RDF>
  </metadata>
  <sodipodi:namedview
     pagecolor="#ffffff"
     bordercolor="#666666"
     borderopacity="1"
     objecttolerance="10"
     gridtolerance="10"
     guidetolerance="10"
     inkscape:pageopacity="0"
     inkscape:pageshadow="2"
     inkscape:window-width="1280"
     inkscape:window-height="720"
     id="namedview12"
     showgrid="false"
     inkscape:zoom="8.137931"
     inkscape:cx="-5.4682204"
     inkscape:cy="24.330508"
     inkscape:window-x="0"
     inkscape:window-y="0"
     inkscape:window-maximized="0"
     inkscape:current-layer="g9" />
  <!-- Generator: Sketch 48.2 (47327) - http://www.bohemiancoding.com/sketch -->
  <title
     id="title4">Shape</title>
  <desc
     id="desc6">Created with Sketch.</desc>
  <defs
     id="defs8" />
  <g
     transform="matrix(0.93477835,0,0,0.93477835,-0.3212844,-0.33829853)"
     id="g9">
    <path
       style="fill:#ececec;fill-opacity:1;stroke-width:0.33250523"
       d="m 13.375838,23.961729 c -1.06121,-0.510053 -1.581725,-1.962143 -2.025517,-5.650687 -0.230951,-1.919507 -0.422296,-3.603327 -0.425212,-3.741822 -0.0033,-0.1385 -0.349684,-0.769626 -0.770605,-1.40251 -2.0740407,-3.118493 -6.1847465,0.293858 -5.146889,4.272505 0.3371597,1.292521 0.6325217,1.515157 2.3416932,1.765144 0.5546485,0.08112 0.812426,0.47243 1.1445799,1.737469 0.518337,1.974156 0.2865699,2.283026 -1.7126462,2.282386 -3.781982,-0.0012 -6.18848861,-5.466375 -4.5678725,-10.373611 1.5877802,-4.8078227 7.0674592,-6.5214607 9.9991966,-3.1270017 1.106224,1.2808257 1.655933,2.9608057 2.096239,6.4064347 l 0.358444,2.805022 1.184801,-3.179024 c 1.429372,-3.835221 2.009181,-4.548898 3.859219,-4.750287 1.813268,-0.197384 3.259645,0.724635 4.086807,2.605215 l 0.619283,1.40796 1.246586,-1.142482 c 0.685615,-0.628366 1.318842,-1.380744 1.407172,-1.671958 0.136632,-0.450498 0.344009,-0.439868 1.390314,0.07127 0.676352,0.33041 1.347497,0.732845 1.491436,0.8943 0.409684,0.459557 -1.436533,3.129829 -3.094746,4.476076 -2.634765,2.139075 -4.791852,1.61095 -5.647471,-1.38269 -0.256124,-0.896148 -0.541252,-1.255411 -0.996351,-1.255411 -0.513913,0 -0.867809,0.634537 -1.825111,3.272525 -0.653169,1.799891 -1.437015,3.64776 -1.741874,4.106378 -0.763868,1.14912 -2.459197,1.965202 -3.271476,1.574797 z"
       id="path29"
       inkscape:connector-curvature="0"
       sodipodi:nodetypes="cccccscsccsccsscccccscsccc" />
  </g>
</svg>
